<svg width="17" height="15" viewBox="0 0 17 15" fill="none" xmlns="http://www.w3.org/2000/svg">
<path fill-rule="evenodd" clip-rule="evenodd" d="M4.32818 1.52642C4.66314 0.917647 5.02753 0.510691 5.56824 0.295478C6.55908 -0.0985057 10.1077 -0.0985057 11.0978 0.295556C11.6382 0.510653 12.0027 0.917538 12.338 1.52619L12.7148 2.24881C12.7234 2.26313 12.7313 2.27572 12.7385 2.28656L12.7705 2.33031C12.9422 2.5174 13.2295 2.63042 13.4192 2.63042C15.2125 2.63042 16.6667 4.08425 16.6667 5.87708V10.7063C16.6667 12.9931 14.8118 14.8479 12.525 14.8479H4.14167C1.85425 14.8479 0 12.9934 0 10.7063V5.87708C0 4.08425 1.45415 2.63042 3.2475 2.63042C3.43648 2.63042 3.72423 2.51723 3.8962 2.33031C3.89964 2.32657 3.90412 2.32099 3.90954 2.31361L3.95239 2.24788L4.32818 1.52642ZM11.243 2.12923C11.0347 1.75104 10.8465 1.54091 10.6355 1.45694L10.5361 1.42389C9.67848 1.18148 6.69534 1.1925 6.03029 1.45694C5.81945 1.54087 5.6314 1.75088 5.42335 2.129L5.10263 2.74908L5.02369 2.89194C4.9578 3.00155 4.89189 3.09407 4.81662 3.17608C4.39457 3.63483 3.77021 3.88042 3.2475 3.88042L3.11075 3.88502C2.07146 3.9553 1.25 4.8206 1.25 5.87708V10.7063C1.25 12.303 2.54466 13.5979 4.14167 13.5979H12.525C14.1215 13.5979 15.4167 12.3027 15.4167 10.7063V5.87708C15.4167 4.77466 14.5222 3.88042 13.4192 3.88042L13.2741 3.87435C12.7836 3.83399 12.2327 3.59305 11.8495 3.17552C11.7753 3.09461 11.7097 3.00274 11.6442 2.89406C11.6348 2.87847 11.6231 2.85794 11.6097 2.83366L11.513 2.6522L11.243 2.12923Z" fill="#1B5E37"/>
<path d="M12.9203 4.58398C13.3805 4.58398 13.7536 4.95708 13.7536 5.41732C13.7536 5.84468 13.4319 6.19691 13.0175 6.24504L12.9203 6.25065C12.4526 6.25065 12.0795 5.87756 12.0795 5.41732C12.0795 4.98995 12.4012 4.63773 12.8156 4.58959L12.9203 4.58398Z" fill="#1B5E37"/>
<path fill-rule="evenodd" clip-rule="evenodd" d="M5.05896 8.44018C5.05896 6.63167 6.52462 5.16602 8.33313 5.16602C10.1416 5.16602 11.6073 6.63167 11.6073 8.44018C11.6073 10.2487 10.1416 11.7143 8.33313 11.7143C6.52462 11.7143 5.05896 10.2487 5.05896 8.44018ZM10.3573 8.44018C10.3573 7.32203 9.45128 6.41602 8.33313 6.41602C7.21497 6.41602 6.30896 7.32203 6.30896 8.44018C6.30896 9.55834 7.21497 10.4643 8.33313 10.4643C9.45128 10.4643 10.3573 9.55834 10.3573 8.44018Z" fill="#1B5E37"/>
</svg>
