<svg width="30" height="30" viewBox="0 0 30 30" fill="none" xmlns="http://www.w3.org/2000/svg">
<circle cx="15" cy="15" r="15" fill="#1B5E37"/>
<path d="M20.8867 12.3399L16.52 8.8466C15.6667 8.1666 14.3333 8.15993 13.4867 8.83993L9.12002 12.3399C8.49335 12.8399 8.11335 13.8399 8.24668 14.6266L9.08668 19.6533C9.28002 20.7799 10.3267 21.6666 11.4667 21.6666H18.5333C19.66 21.6666 20.7267 20.7599 20.92 19.6466L21.76 14.6199C21.88 13.8399 21.5 12.8399 20.8867 12.3399ZM15.5 18.9999C15.5 19.2733 15.2733 19.4999 15 19.4999C14.7267 19.4999 14.5 19.2733 14.5 18.9999V16.9999C14.5 16.7266 14.7267 16.4999 15 16.4999C15.2733 16.4999 15.5 16.7266 15.5 16.9999V18.9999Z" fill="white"/>
</svg>
