<svg width="20" height="20" viewBox="0 0 20 20" fill="none" xmlns="http://www.w3.org/2000/svg">
<path d="M9.99996 18.9577C5.05829 18.9577 1.04163 14.941 1.04163 9.99935C1.04163 5.05768 5.05829 1.04102 9.99996 1.04102C14.9416 1.04102 18.9583 5.05768 18.9583 9.99935C18.9583 14.941 14.9416 18.9577 9.99996 18.9577ZM9.99996 2.29102C5.74996 2.29102 2.29163 5.74935 2.29163 9.99935C2.29163 14.2493 5.74996 17.7077 9.99996 17.7077C14.25 17.7077 17.7083 14.2493 17.7083 9.99935C17.7083 5.74935 14.25 2.29102 9.99996 2.29102Z" fill="#1B5E37"/>
<path d="M10 11.4577C9.65833 11.4577 9.375 11.1743 9.375 10.8327V6.66602C9.375 6.32435 9.65833 6.04102 10 6.04102C10.3417 6.04102 10.625 6.32435 10.625 6.66602V10.8327C10.625 11.1743 10.3417 11.4577 10 11.4577Z" fill="#1B5E37"/>
<path d="M9.99996 14.1664C9.89163 14.1664 9.78329 14.1414 9.68329 14.0997C9.58329 14.0581 9.49163 13.9997 9.40829 13.9247C9.33329 13.8414 9.27496 13.7581 9.23329 13.6497C9.19163 13.5497 9.16663 13.4414 9.16663 13.3331C9.16663 13.2247 9.19163 13.1164 9.23329 13.0164C9.27496 12.9164 9.33329 12.8247 9.40829 12.7414C9.49163 12.6664 9.58329 12.6081 9.68329 12.5664C9.88329 12.4831 10.1166 12.4831 10.3166 12.5664C10.4166 12.6081 10.5083 12.6664 10.5916 12.7414C10.6666 12.8247 10.725 12.9164 10.7666 13.0164C10.8083 13.1164 10.8333 13.2247 10.8333 13.3331C10.8333 13.4414 10.8083 13.5497 10.7666 13.6497C10.725 13.7581 10.6666 13.8414 10.5916 13.9247C10.5083 13.9997 10.4166 14.0581 10.3166 14.0997C10.2166 14.1414 10.1083 14.1664 9.99996 14.1664Z" fill="#1B5E37"/>
</svg>
