<svg width="20" height="20" viewBox="0 0 20 20" fill="none" xmlns="http://www.w3.org/2000/svg">
<path d="M10.0167 17.1086C8.07505 17.1086 6.13339 16.8003 4.29172 16.1836C3.59172 15.9419 3.05839 15.4503 2.82505 14.8086C2.58339 14.1669 2.66672 13.4586 3.05005 12.8253L4.00839 11.2336C4.20839 10.9003 4.39172 10.2336 4.39172 9.84193V7.43359C4.39172 4.33359 6.91672 1.80859 10.0167 1.80859C13.1167 1.80859 15.6417 4.33359 15.6417 7.43359V9.84193C15.6417 10.2253 15.8251 10.9003 16.0251 11.2419L16.9751 12.8253C17.3334 13.4253 17.4001 14.1503 17.1584 14.8086C16.9167 15.4669 16.3917 15.9669 15.7334 16.1836C13.9001 16.8003 11.9584 17.1086 10.0167 17.1086ZM10.0167 3.05859C7.60839 3.05859 5.64172 5.01693 5.64172 7.43359V9.84193C5.64172 10.4503 5.39172 11.3503 5.08339 11.8753L4.12505 13.4669C3.94172 13.7753 3.89172 14.1003 4.00005 14.3753C4.10005 14.6586 4.35005 14.8753 4.69172 14.9919C8.17505 16.1586 11.8667 16.1586 15.3501 14.9919C15.6501 14.8919 15.8834 14.6669 15.9917 14.3669C16.1001 14.0669 16.0751 13.7419 15.9084 13.4669L14.9501 11.8753C14.6334 11.3336 14.3917 10.4419 14.3917 9.83359V7.43359C14.3917 5.01693 12.4334 3.05859 10.0167 3.05859Z" fill="#1B5E37"/>
<path d="M11.5667 3.28242C11.5084 3.28242 11.4501 3.27409 11.3917 3.25742C11.1501 3.19076 10.9167 3.14076 10.6917 3.10742C9.98339 3.01576 9.30005 3.06576 8.65839 3.25742C8.42505 3.33242 8.17505 3.25742 8.01672 3.08242C7.85839 2.90742 7.80839 2.65742 7.90005 2.43242C8.24172 1.55742 9.07505 0.982422 10.0251 0.982422C10.9751 0.982422 11.8084 1.54909 12.1501 2.43242C12.2334 2.65742 12.1917 2.90742 12.0334 3.08242C11.9084 3.21576 11.7334 3.28242 11.5667 3.28242Z" fill="#1B5E37"/>
<path d="M10.0167 19.0078C9.19172 19.0078 8.39172 18.6745 7.80839 18.0911C7.22506 17.5078 6.89172 16.7078 6.89172 15.8828H8.14172C8.14172 16.3745 8.34172 16.8578 8.69172 17.2078C9.04172 17.5578 9.52506 17.7578 10.0167 17.7578C11.0501 17.7578 11.8917 16.9161 11.8917 15.8828H13.1417C13.1417 17.6078 11.7417 19.0078 10.0167 19.0078Z" fill="#1B5E37"/>
</svg>
