<svg version="1.1" id="Layer_1" xmlns="http://www.w3.org/2000/svg" xmlns:xlink="http://www.w3.org/1999/xlink" x="0px" y="0px"
	 width="100%" viewBox="0 0 512 512" enable-background="new 0 0 512 512" xml:space="preserve">
<path fill="#000000" opacity="1.000000" stroke="none" 
	d="
M342.000000,513.000000 
	C228.027695,513.000000 114.555382,513.000000 1.041535,513.000000 
	C1.041535,342.402679 1.041535,171.805328 1.041535,1.103989 
	C171.555649,1.103989 342.111389,1.103989 512.833557,1.103989 
	C512.833557,171.666534 512.833557,342.333252 512.833557,513.000000 
	C456.138641,513.000000 399.319305,513.000000 342.000000,513.000000 
M171.753601,367.767548 
	C177.955750,360.792755 177.636536,348.710236 170.822540,342.313354 
	C168.880173,341.264740 166.937805,340.216125 164.270905,338.805389 
	C162.180161,338.591675 160.089432,338.377960 157.187714,338.020691 
	C154.755829,338.663483 152.323944,339.306305 149.210205,340.004669 
	C147.458298,341.635040 145.706406,343.265411 143.334610,345.152679 
	C141.186630,347.422577 139.038666,349.692444 136.267822,352.212372 
	C124.489357,361.273224 125.899643,378.157654 138.739761,383.992279 
	C140.822052,384.604462 142.904343,385.216614 145.765884,385.985901 
	C147.509338,385.602051 149.252792,385.218201 151.718658,384.983948 
	C154.185806,383.336121 156.652954,381.688293 159.728638,379.805328 
	C161.500320,377.908203 163.272003,376.011078 165.660431,373.858002 
	C167.474411,371.920471 169.288391,369.982941 171.753601,367.767548 
M266.750244,132.782043 
	C268.201660,131.202438 269.653076,129.622818 271.772858,127.747841 
	C272.513611,126.342087 273.789337,124.978439 273.903839,123.523392 
	C274.441223,116.695572 274.575104,109.837173 275.017395,103.000328 
	C275.389374,97.250069 273.985565,92.172760 269.802124,87.297935 
	C268.581512,86.513367 267.360931,85.728806 265.826874,84.272293 
	C264.217499,83.903076 262.608154,83.533867 260.299835,83.019554 
	C259.199280,82.734993 258.098755,82.450432 256.283997,82.215034 
	C255.182129,82.533699 254.080261,82.852356 252.230774,83.035767 
	C247.912216,84.530273 243.744827,86.222527 241.209702,91.294579 
	C240.855469,92.008484 240.219208,92.710960 240.189758,93.438019 
	C239.807831,102.866676 239.272949,112.301430 239.376053,121.728104 
	C239.399521,123.873657 241.705963,125.994255 242.984573,128.842285 
	C246.316086,130.837982 249.647614,132.833679 253.687820,134.994431 
	C254.791428,135.274551 255.895050,135.554657 257.707764,135.979919 
	C258.805145,135.598755 259.902496,135.217590 261.725891,134.988251 
	C263.191193,134.340820 264.656464,133.693390 266.750244,132.782043 
M258.722107,378.239105 
	C257.447083,378.477142 256.172028,378.715179 254.165375,378.998352 
	C253.437759,379.056458 252.710144,379.114563 251.259399,379.031555 
	C248.135818,381.668243 245.012253,384.304901 241.209503,387.296509 
	C237.069275,397.168610 239.492981,407.491119 239.295715,417.616241 
	C239.260666,419.414032 240.983109,421.246094 242.163849,423.713776 
	C245.073044,425.823273 247.982239,427.932770 251.253052,430.745300 
	C252.823135,430.868439 254.393234,430.991577 256.207001,431.711761 
	C257.135040,431.417328 258.063049,431.122894 259.726746,430.980927 
	C260.830444,430.691162 261.934174,430.401428 263.734375,430.014099 
	C264.839752,429.380219 265.945160,428.746338 267.771881,428.025940 
	C269.849457,425.105835 273.229584,422.395721 273.740967,419.223175 
	C274.905548,411.998352 274.639740,404.545563 274.998932,397.187561 
	C275.276367,391.504150 273.102966,386.862579 268.809113,382.305908 
	C266.885986,381.499908 264.962830,380.693939 262.702148,379.233185 
	C261.480835,379.117218 260.259491,379.001251 258.722107,378.239105 
M127.687492,271.837158 
	C138.773590,265.810028 137.895309,246.983322 126.718056,241.242737 
	C124.479729,240.548782 122.241394,239.854828 119.135895,239.015488 
	C117.089996,239.065002 115.044090,239.114517 112.118187,239.024445 
	C109.744667,239.071152 107.371155,239.117859 104.123856,239.017090 
	C101.373787,239.326187 98.623726,239.635269 95.153603,239.995255 
	C93.422447,240.957504 91.691284,241.919754 89.240120,243.000946 
	C83.706078,246.213974 82.084503,252.074249 82.340584,257.344238 
	C82.589981,262.476562 83.521133,268.723358 90.224716,271.769745 
	C92.489182,272.800446 94.753647,273.831146 97.896263,274.995667 
	C100.263405,274.942261 102.630539,274.888855 105.875816,274.987091 
	C108.249962,274.936707 110.624100,274.886353 113.862503,274.992828 
	C115.909363,274.941589 117.956215,274.890350 120.735634,274.979553 
	C122.837830,274.025391 124.940025,273.071198 127.687492,271.837158 
M378.825500,381.998291 
	C387.693726,375.590546 388.762177,360.265472 377.805969,352.286469 
	C375.904114,350.507874 374.002228,348.729309 371.833435,346.329224 
	C369.235809,344.182526 366.638184,342.035797 363.669647,339.205841 
	C361.106995,338.860596 358.544342,338.515350 355.150055,338.028564 
	C352.397919,338.673553 349.645813,339.318542 346.192352,340.008514 
	C343.797577,342.739807 340.264587,345.099396 339.227783,348.274139 
	C336.448212,356.785248 336.755646,364.706818 347.140839,372.665985 
	C349.725159,375.125854 352.309479,377.585724 355.163422,380.700012 
	C358.106720,382.076385 361.050018,383.452759 364.690125,385.161194 
	C366.788147,385.051025 368.886200,384.940857 371.742706,384.986664 
	C373.865662,384.006348 375.988586,383.026001 378.825500,381.998291 
M400.131470,239.017029 
	C398.086975,239.066147 396.042480,239.115250 393.254669,239.017609 
	C390.823090,240.306091 388.391479,241.594574 385.241943,243.001236 
	C379.631409,246.179413 378.086365,251.918198 378.269348,257.360260 
	C378.448883,262.699341 379.649231,268.651917 386.232269,271.776489 
	C388.821259,272.796326 391.410248,273.816162 394.863037,274.991699 
	C396.907837,274.939606 398.952667,274.887512 401.821289,274.987274 
	C403.213165,274.935913 404.605042,274.884552 406.861420,274.985077 
	C408.904602,274.933960 410.947784,274.882874 413.798340,274.985168 
	C416.212860,274.360840 418.627380,273.736511 421.762360,273.009857 
	C429.062286,269.881836 431.965393,263.346375 431.687134,256.439117 
	C431.420105,249.812088 428.684204,243.257126 420.665131,240.209869 
	C418.107086,239.862610 415.549072,239.515350 412.125885,239.023727 
	C410.082916,239.071426 408.039978,239.119125 405.172241,239.019318 
	C403.780640,239.067749 402.389038,239.116180 400.131470,239.017029 
M136.287766,131.190796 
	C134.852890,132.410156 133.139709,133.418427 132.028625,134.883362 
	C125.149826,143.952911 127.682175,155.704926 137.188736,162.723282 
	C139.444885,164.851257 141.701050,166.979248 144.194412,169.728760 
	C146.095596,171.170532 147.996780,172.612305 150.270615,174.757492 
	C153.177933,175.115921 156.085251,175.474335 159.797470,175.985931 
	C162.212936,175.360916 164.628403,174.735886 167.747314,174.010880 
	C170.156738,171.283600 173.718170,168.932053 174.753830,165.756714 
	C177.563248,157.142914 177.188492,149.244858 166.794205,141.278610 
	C164.565399,139.170181 162.336578,137.061737 159.832184,134.319168 
	C156.886520,132.601395 153.940857,130.883621 150.201782,129.010315 
	C148.131516,128.729599 146.061264,128.448898 143.255432,128.250229 
	C141.148422,129.137650 139.041428,130.025085 136.287766,131.190796 
M346.328918,142.160614 
	C335.109253,153.428116 334.608002,164.050079 345.196838,173.726776 
	C348.127106,174.427856 351.057404,175.128952 354.789520,175.986435 
	C356.966003,175.626328 359.142487,175.266205 362.111298,174.962051 
	C364.421906,173.345764 366.732513,171.729492 369.664307,169.859451 
	C371.792236,167.610123 373.920197,165.360794 376.674286,162.850296 
	C390.205048,152.280319 387.535034,136.650803 375.214691,130.015961 
	C373.139679,129.400146 371.064667,128.784332 368.194153,128.024429 
	C365.782104,128.646423 363.370056,129.268417 360.243652,130.003326 
	C357.792053,131.988541 355.340485,133.973755 352.281006,136.199570 
	C350.506104,138.100449 348.731201,140.001328 346.328918,142.160614 
M244.193741,170.020493 
	C239.792328,171.063232 235.390930,172.105972 230.247360,173.217209 
	C213.937485,179.094528 199.869095,188.203262 188.308014,202.156570 
	C181.186157,211.967834 175.446762,222.429428 172.274185,234.255539 
	C169.100449,246.085983 168.613647,258.214630 170.269821,270.058533 
	C172.446365,285.623718 178.512604,299.983704 189.206543,312.758698 
	C193.866821,317.184692 198.413757,321.738068 203.212799,326.008087 
	C211.259216,333.167542 221.036636,337.199463 231.803604,340.989410 
	C236.534668,341.937225 241.265732,342.885040 246.892563,343.986450 
	C251.593704,343.935394 256.294830,343.884338 261.897369,343.986145 
	C266.638702,343.339569 271.380035,342.692993 276.940002,342.013245 
	C286.125580,340.673126 294.308777,336.797272 302.774567,331.762085 
	C306.866150,328.544098 310.957703,325.326080 315.672424,321.848022 
	C318.956726,318.555023 322.586273,315.537323 325.467834,311.923218 
	C341.148315,292.256348 346.845154,269.481415 343.783661,244.936203 
	C341.152496,223.840714 331.665039,205.756882 314.784241,191.264069 
	C310.541748,188.130539 306.299255,184.997025 301.747528,181.217743 
	C292.833191,177.865753 283.918823,174.513763 274.147888,171.019470 
	C269.763885,170.735245 265.379913,170.451004 260.192505,170.019623 
	C255.127274,170.068573 250.062057,170.117523 244.193741,170.020493 
z"/>
<path fill="#AAF4EF" opacity="1.000000" stroke="none" 
	d="
M230.989487,340.851227 
	C221.036636,337.199463 211.259216,333.167542 203.212799,326.008087 
	C198.413757,321.738068 193.866821,317.184692 189.155457,312.027039 
	C189.405487,309.173981 189.965302,307.053070 189.968964,304.931183 
	C190.024796,272.675842 190.027451,240.420319 189.962646,208.165024 
	C189.958420,206.062622 189.306168,203.961517 188.955353,201.859818 
	C199.869095,188.203262 213.937485,179.094528 230.620605,173.642181 
	C230.992386,229.661835 230.990936,285.256531 230.989487,340.851227 
z"/>
<path fill="#6CEEE2" opacity="1.000000" stroke="none" 
	d="
M275.004486,171.161758 
	C283.918823,174.513763 292.833191,177.865753 301.732910,181.932999 
	C301.478912,184.442764 301.031860,186.237122 301.030365,188.031830 
	C300.991974,234.318741 300.987701,280.605713 301.048401,326.892548 
	C301.050659,328.611786 301.764709,330.330078 302.147034,332.048828 
	C294.308777,336.797272 286.125580,340.673126 276.242859,341.721985 
	C275.365814,339.463776 275.029877,337.496979 275.028839,335.529968 
	C275.000000,280.740570 275.005035,225.951157 275.004486,171.161758 
z"/>
<path fill="#56ECDD" opacity="1.000000" stroke="none" 
	d="
M315.046387,191.887848 
	C331.665039,205.756882 341.152496,223.840714 343.783661,244.936203 
	C346.845154,269.481415 341.148315,292.256348 325.467834,311.923218 
	C322.586273,315.537323 318.956726,318.555023 315.190796,321.588318 
	C314.473206,319.535522 314.033112,317.742615 314.031311,315.949249 
	C313.991943,276.698059 313.985168,237.446823 314.045837,198.195724 
	C314.049072,196.092590 314.697998,193.990448 315.046387,191.887848 
z"/>
<path fill="#8BF1E8" opacity="1.000000" stroke="none" 
	d="
M260.995972,343.833252 
	C256.294830,343.884338 251.593704,343.935394 246.444885,343.486694 
	C245.665009,333.861847 245.063812,324.737274 245.045578,315.611542 
	C244.948715,267.130005 244.998093,218.648178 244.996826,170.166473 
	C250.062057,170.117523 255.127274,170.068573 260.595276,170.551224 
	C260.997345,228.666306 260.996643,286.249786 260.995972,343.833252 
z"/>
<path fill="#80F0E6" opacity="1.000000" stroke="none" 
	d="
M261.446655,343.909698 
	C260.996643,286.249786 260.997345,228.666306 260.996979,170.624786 
	C265.379913,170.451004 269.763885,170.735245 274.576172,171.090607 
	C275.005035,225.951157 275.000000,280.740570 275.028839,335.529968 
	C275.029877,337.496979 275.365814,339.463776 275.833527,341.738556 
	C271.380035,342.692993 266.638702,343.339569 261.446655,343.909698 
z"/>
<path fill="#96F2EA" opacity="1.000000" stroke="none" 
	d="
M244.595276,170.093475 
	C244.998093,218.648178 244.948715,267.130005 245.045578,315.611542 
	C245.063812,324.737274 245.665009,333.861847 245.997009,343.409912 
	C241.265732,342.885040 236.534668,341.937225 231.396545,340.920319 
	C230.990936,285.256531 230.992386,229.661835 230.991684,173.607925 
	C235.390930,172.105972 239.792328,171.063232 244.595276,170.093475 
z"/>
<path fill="#62EEE0" opacity="1.000000" stroke="none" 
	d="
M314.915314,191.575958 
	C314.697998,193.990448 314.049072,196.092590 314.045837,198.195724 
	C313.985168,237.446823 313.991943,276.698059 314.031311,315.949249 
	C314.033112,317.742615 314.473206,319.535522 314.879211,321.718353 
	C310.957703,325.326080 306.866150,328.544098 302.460815,331.905457 
	C301.764709,330.330078 301.050659,328.611786 301.048401,326.892548 
	C300.987701,280.605713 300.991974,234.318741 301.030365,188.031830 
	C301.031860,186.237122 301.478912,184.442764 301.887543,182.255875 
	C306.299255,184.997025 310.541748,188.130539 314.915314,191.575958 
z"/>
<path fill="#C0F6F3" opacity="1.000000" stroke="none" 
	d="
M188.631683,202.008194 
	C189.306168,203.961517 189.958420,206.062622 189.962646,208.165024 
	C190.027451,240.420319 190.024796,272.675842 189.968964,304.931183 
	C189.965302,307.053070 189.405487,309.173981 189.030304,311.716492 
	C178.512604,299.983704 172.446365,285.623718 170.269821,270.058533 
	C168.613647,258.214630 169.100449,246.085983 172.274185,234.255539 
	C175.446762,222.429428 181.186157,211.967834 188.631683,202.008194 
z"/>
<path fill="#AAF4EF" opacity="1.000000" stroke="none" 
	d="
M252.979126,134.829376 
	C249.647614,132.833679 246.316086,130.837982 242.985840,128.007553 
	C242.995026,116.799133 243.053635,106.425003 242.960464,96.052231 
	C242.945129,94.345123 242.263565,92.644005 241.889923,90.940109 
	C243.744827,86.222527 247.912216,84.530273 252.608398,83.561157 
	C252.983704,101.000832 252.981415,117.915100 252.979126,134.829376 
z"/>
<path fill="#AAF4EF" opacity="1.000000" stroke="none" 
	d="
M241.888672,386.941559 
	C245.012253,384.304901 248.135818,381.668243 251.623795,379.559814 
	C251.989685,394.853455 252.030457,409.619080 251.943909,424.383942 
	C251.932846,426.272034 251.258514,428.156250 250.891449,430.042267 
	C247.982239,427.932770 245.073044,425.823273 242.316177,423.078003 
	C242.606339,411.168579 242.758606,399.895081 242.838913,388.621063 
	C242.842896,388.063507 242.219788,387.501495 241.888672,386.941559 
z"/>
<path fill="#8BF1E8" opacity="1.000000" stroke="none" 
	d="
M363.993317,384.829163 
	C361.050018,383.452759 358.106720,382.076385 355.313141,380.062622 
	C355.639465,377.795227 355.963776,376.165680 355.969116,374.535095 
	C356.008881,362.413574 355.985352,350.291809 355.981689,338.170105 
	C358.544342,338.515350 361.106995,338.860596 363.843719,340.023193 
	C364.009644,355.503387 364.001465,370.166290 363.993317,384.829163 
z"/>
<path fill="#80F0E6" opacity="1.000000" stroke="none" 
	d="
M158.992569,175.832764 
	C156.085251,175.474335 153.177933,175.115921 150.369217,174.094910 
	C150.645615,171.635559 150.971588,169.839249 150.977448,168.041901 
	C151.019730,155.083328 150.997192,142.124557 150.995193,129.165848 
	C153.940857,130.883621 156.886520,132.601395 159.683441,134.945160 
	C159.356277,137.366867 159.030807,139.161957 159.023270,140.958389 
	C158.974396,152.583023 158.994843,164.207932 158.992569,175.832764 
z"/>
<path fill="#80F0E6" opacity="1.000000" stroke="none" 
	d="
M360.958008,129.890411 
	C363.370056,129.268417 365.782104,128.646423 368.594055,128.554382 
	C369.010315,142.760605 369.026703,156.436905 369.043091,170.113190 
	C366.732513,171.729492 364.421906,173.345764 361.643738,174.409912 
	C361.103485,159.201981 361.030731,144.546204 360.958008,129.890411 
z"/>
<path fill="#80F0E6" opacity="1.000000" stroke="none" 
	d="
M159.120087,380.040436 
	C156.652954,381.688293 154.185806,383.336121 151.358887,384.451050 
	C150.999786,371.146454 151.045746,358.374390 150.951675,345.603394 
	C150.937790,343.716125 150.261749,341.833740 149.892059,339.949097 
	C152.323944,339.306305 154.755829,338.663483 157.594406,338.550659 
	C158.001953,351.017853 157.958344,362.955414 158.053329,374.891876 
	C158.067017,376.610809 158.747940,378.324371 159.120087,380.040436 
z"/>
<path fill="#AAF4EF" opacity="1.000000" stroke="none" 
	d="
M355.565857,338.099365 
	C355.985352,350.291809 356.008881,362.413574 355.969116,374.535095 
	C355.963776,376.165680 355.639465,377.795227 355.178345,379.735413 
	C352.309479,377.585724 349.725159,375.125854 347.301636,372.041931 
	C347.637390,362.322571 347.861664,353.227631 347.934937,344.131500 
	C347.946075,342.745056 347.258209,341.352997 346.893677,339.963501 
	C349.645813,339.318542 352.397919,338.673553 355.565857,338.099365 
z"/>
<path fill="#96F2EA" opacity="1.000000" stroke="none" 
	d="
M360.600830,129.946869 
	C361.030731,144.546204 361.103485,159.201981 361.247589,174.381927 
	C359.142487,175.266205 356.966003,175.626328 354.390808,175.450378 
	C353.993134,163.646179 354.040619,152.377640 353.945679,141.110291 
	C353.931213,139.390350 353.257660,137.675949 352.888916,135.958984 
	C355.340485,133.973755 357.792053,131.988541 360.600830,129.946869 
z"/>
<path fill="#96F2EA" opacity="1.000000" stroke="none" 
	d="
M150.598480,129.088074 
	C150.997192,142.124557 151.019730,155.083328 150.977448,168.041901 
	C150.971588,169.839249 150.645615,171.635559 150.182892,173.743210 
	C147.996780,172.612305 146.095596,171.170532 144.086365,168.942841 
	C143.982544,154.827347 143.986771,141.497757 143.990997,128.168182 
	C146.061264,128.448898 148.131516,128.729599 150.598480,129.088074 
z"/>
<path fill="#56ECDD" opacity="1.000000" stroke="none" 
	d="
M269.119324,382.954254 
	C273.102966,386.862579 275.276367,391.504150 274.998932,397.187561 
	C274.639740,404.545563 274.905548,411.998352 273.740967,419.223175 
	C273.229584,422.395721 269.849457,425.105835 267.398865,427.593842 
	C267.018219,414.052490 266.936737,400.942352 267.096558,387.835114 
	C267.116516,386.200195 268.413879,384.580841 269.119324,382.954254 
z"/>
<path fill="#80F0E6" opacity="1.000000" stroke="none" 
	d="
M364.341736,384.995178 
	C364.001465,370.166290 364.009644,355.503387 364.029175,340.364807 
	C366.638184,342.035797 369.235809,344.182526 371.681122,346.949829 
	C371.347290,359.990509 371.165741,372.410583 370.984222,384.830688 
	C368.886200,384.940857 366.788147,385.051025 364.341736,384.995178 
z"/>
<path fill="#6CEEE2" opacity="1.000000" stroke="none" 
	d="
M159.395020,175.909348 
	C158.994843,164.207932 158.974396,152.583023 159.023270,140.958389 
	C159.030807,139.161957 159.356277,137.366867 159.821243,135.262238 
	C162.336578,137.061737 164.565399,139.170181 166.907684,142.058868 
	C167.028717,153.263046 167.036285,163.686951 167.043854,174.110870 
	C164.628403,174.735886 162.212936,175.360916 159.395020,175.909348 
z"/>
<path fill="#96F2EA" opacity="1.000000" stroke="none" 
	d="
M104.997681,274.835449 
	C102.630539,274.888855 100.263405,274.942261 97.455200,274.468933 
	C97.012161,264.323456 97.065178,254.704102 96.957176,245.086548 
	C96.937881,243.368637 96.251839,241.658218 95.873657,239.944351 
	C98.623726,239.635269 101.373787,239.326187 104.561737,239.549011 
	C104.998978,251.665756 104.998329,263.250610 104.997681,274.835449 
z"/>
<path fill="#8BF1E8" opacity="1.000000" stroke="none" 
	d="
M105.436752,274.911255 
	C104.998329,263.250610 104.998978,251.665756 104.998627,239.622742 
	C107.371155,239.117859 109.744667,239.071152 112.560013,239.552429 
	C113.000641,251.665604 112.999443,263.250793 112.998245,274.835968 
	C110.624100,274.886353 108.249962,274.936707 105.436752,274.911255 
z"/>
<path fill="#6CEEE2" opacity="1.000000" stroke="none" 
	d="
M421.041901,273.112213 
	C418.627380,273.736511 416.212860,274.360840 413.396515,274.450562 
	C412.993469,262.333344 412.992249,250.750717 412.991028,239.168106 
	C415.549072,239.515350 418.107086,239.862610 420.843018,241.024780 
	C421.027893,252.263870 421.034882,262.688049 421.041901,273.112213 
z"/>
<path fill="#6CEEE2" opacity="1.000000" stroke="none" 
	d="
M159.424347,379.922882 
	C158.747940,378.324371 158.067017,376.610809 158.053329,374.891876 
	C157.958344,362.955414 158.001953,351.017853 157.999893,338.622437 
	C160.089432,338.377960 162.180161,338.591675 164.634171,339.444397 
	C165.012848,351.426941 165.028275,362.770447 165.043701,374.113953 
	C163.272003,376.011078 161.500320,377.908203 159.424347,379.922882 
z"/>
<path fill="#96F2EA" opacity="1.000000" stroke="none" 
	d="
M149.551117,339.976868 
	C150.261749,341.833740 150.937790,343.716125 150.951675,345.603394 
	C151.045746,358.374390 150.999786,371.146454 150.997681,384.376251 
	C149.252792,385.218201 147.509338,385.602051 145.378464,385.449585 
	C144.992188,373.665314 145.045700,362.416901 144.947495,351.169800 
	C144.929214,349.075714 144.301132,346.987000 143.954498,344.895782 
	C145.706406,343.265411 147.458298,341.635040 149.551117,339.976868 
z"/>
<path fill="#6CEEE2" opacity="1.000000" stroke="none" 
	d="
M369.353699,169.986328 
	C369.026703,156.436905 369.010315,142.760605 368.991791,128.626419 
	C371.064667,128.784332 373.139679,129.400146 375.597473,130.556396 
	C376.002899,141.768372 376.025543,152.439911 376.048157,163.111465 
	C373.920197,165.360794 371.792236,167.610123 369.353699,169.986328 
z"/>
<path fill="#AAF4EF" opacity="1.000000" stroke="none" 
	d="
M352.584961,136.079285 
	C353.257660,137.675949 353.931213,139.390350 353.945679,141.110291 
	C354.040619,152.377640 353.993134,163.646179 353.989899,175.372192 
	C351.057404,175.128952 348.127106,174.427856 345.424866,173.265625 
	C346.099457,171.148758 346.908905,169.498016 346.931702,167.836487 
	C347.050232,159.193253 346.968414,150.547256 346.956329,141.902222 
	C348.731201,140.001328 350.506104,138.100449 352.584961,136.079285 
z"/>
<path fill="#AAF4EF" opacity="1.000000" stroke="none" 
	d="
M143.644547,345.024231 
	C144.301132,346.987000 144.929214,349.075714 144.947495,351.169800 
	C145.045700,362.416901 144.992188,373.665314 144.988831,385.371033 
	C142.904343,385.216614 140.822052,384.604462 138.365448,383.460022 
	C137.991211,374.321625 138.050323,365.714722 137.941528,357.109924 
	C137.919769,355.389923 137.257584,353.677979 136.890686,351.962341 
	C139.038666,349.692444 141.186630,347.422577 143.644547,345.024231 
z"/>
<path fill="#AAF4EF" opacity="1.000000" stroke="none" 
	d="
M143.623215,128.209198 
	C143.986771,141.497757 143.982544,154.827347 143.967743,168.632080 
	C141.701050,166.979248 139.444885,164.851257 137.082794,161.938202 
	C136.962723,151.072906 136.948578,140.992706 136.934418,130.912506 
	C139.041428,130.025085 141.148422,129.137650 143.623215,128.209198 
z"/>
<path fill="#56ECDD" opacity="1.000000" stroke="none" 
	d="
M421.402130,273.061035 
	C421.034882,262.688049 421.027893,252.263870 421.033142,241.364090 
	C428.684204,243.257126 431.420105,249.812088 431.687134,256.439117 
	C431.965393,263.346375 429.062286,269.881836 421.402130,273.061035 
z"/>
<path fill="#6CEEE2" opacity="1.000000" stroke="none" 
	d="
M113.430374,274.914398 
	C112.999443,263.250793 113.000641,251.665604 113.000015,239.622223 
	C115.044090,239.114517 117.089996,239.065002 119.569641,239.546570 
	C120.003273,251.664780 120.003174,263.251923 120.003075,274.839081 
	C117.956215,274.890350 115.909363,274.941589 113.430374,274.914398 
z"/>
<path fill="#80F0E6" opacity="1.000000" stroke="none" 
	d="
M412.558472,239.095917 
	C412.992249,250.750717 412.993469,262.333344 412.992828,274.373871 
	C410.947784,274.882874 408.904602,274.933960 406.430054,274.451111 
	C405.998108,262.333710 405.997559,250.750259 405.997009,239.166840 
	C408.039978,239.119125 410.082916,239.071426 412.558472,239.095917 
z"/>
<path fill="#C0F6F3" opacity="1.000000" stroke="none" 
	d="
M346.543030,339.986023 
	C347.258209,341.352997 347.946075,342.745056 347.934937,344.131500 
	C347.861664,353.227631 347.637390,362.322571 347.178772,371.727875 
	C336.755646,364.706818 336.448212,356.785248 339.227783,348.274139 
	C340.264587,345.099396 343.797577,342.739807 346.543030,339.986023 
z"/>
<path fill="#AAF4EF" opacity="1.000000" stroke="none" 
	d="
M385.959839,242.883057 
	C388.391479,241.594574 390.823090,240.306091 393.627930,239.549194 
	C394.000549,251.665863 393.999908,263.250946 393.999237,274.836029 
	C391.410248,273.816162 388.821259,272.796326 386.167114,271.026398 
	C386.054596,261.145233 386.007233,252.014130 385.959839,242.883057 
z"/>
<path fill="#AAF4EF" opacity="1.000000" stroke="none" 
	d="
M95.513626,239.969803 
	C96.251839,241.658218 96.937881,243.368637 96.957176,245.086548 
	C97.065178,254.704102 97.012161,264.323456 97.016129,274.402039 
	C94.753647,273.831146 92.489182,272.800446 90.103584,270.967804 
	C89.975014,261.071228 89.967575,251.976624 89.960129,242.881989 
	C91.691284,241.919754 93.422447,240.957504 95.513626,239.969803 
z"/>
<path fill="#C0F6F3" opacity="1.000000" stroke="none" 
	d="
M136.579254,352.087341 
	C137.257584,353.677979 137.919769,355.389923 137.941528,357.109924 
	C138.050323,365.714722 137.991211,374.321625 137.989304,383.386658 
	C125.899643,378.157654 124.489357,361.273224 136.579254,352.087341 
z"/>
<path fill="#56ECDD" opacity="1.000000" stroke="none" 
	d="
M376.361206,162.980881 
	C376.025543,152.439911 376.002899,141.768372 375.967957,130.639908 
	C387.535034,136.650803 390.205048,152.280319 376.361206,162.980881 
z"/>
<path fill="#96F2EA" opacity="1.000000" stroke="none" 
	d="
M394.431152,274.913879 
	C393.999908,263.250946 394.000549,251.665863 393.999603,239.622574 
	C396.042480,239.115250 398.086975,239.066147 400.561707,239.508270 
	C400.993774,251.611465 400.995605,263.223419 400.997467,274.835388 
	C398.952667,274.887512 396.907837,274.939606 394.431152,274.913879 
z"/>
<path fill="#62EEE0" opacity="1.000000" stroke="none" 
	d="
M371.363464,384.908691 
	C371.165741,372.410583 371.347290,359.990509 371.814575,347.260559 
	C374.002228,348.729309 375.904114,350.507874 377.758118,352.979370 
	C377.473938,361.084503 377.145782,368.495697 377.061066,375.909668 
	C377.037750,377.950745 377.741425,380.000092 378.111511,382.045654 
	C375.988586,383.026001 373.865662,384.006348 371.363464,384.908691 
z"/>
<path fill="#56ECDD" opacity="1.000000" stroke="none" 
	d="
M127.044876,241.887939 
	C137.895309,246.983322 138.773590,265.810028 127.293640,271.556946 
	C126.948151,261.480438 126.996513,251.684189 127.044876,241.887939 
z"/>
<path fill="#56ECDD" opacity="1.000000" stroke="none" 
	d="
M167.395584,174.060883 
	C167.036285,163.686951 167.028717,153.263046 167.033569,142.363480 
	C177.188492,149.244858 177.563248,157.142914 174.753830,165.756714 
	C173.718170,168.932053 170.156738,171.283600 167.395584,174.060883 
z"/>
<path fill="#C0F6F3" opacity="1.000000" stroke="none" 
	d="
M346.642639,142.031418 
	C346.968414,150.547256 347.050232,159.193253 346.931702,167.836487 
	C346.908905,169.498016 346.099457,171.148758 345.262329,172.921906 
	C334.608002,164.050079 335.109253,153.428116 346.642639,142.031418 
z"/>
<path fill="#8BF1E8" opacity="1.000000" stroke="none" 
	d="
M253.333466,134.911896 
	C252.981415,117.915100 252.983704,101.000832 252.982208,83.628784 
	C254.080261,82.852356 255.182129,82.533699 256.642151,82.648529 
	C256.999786,100.666267 256.999237,118.250519 256.998657,135.834763 
	C255.895050,135.554657 254.791428,135.274551 253.333466,134.911896 
z"/>
<path fill="#80F0E6" opacity="1.000000" stroke="none" 
	d="
M257.353210,135.907349 
	C256.999237,118.250519 256.999786,100.666267 256.999268,82.623947 
	C258.098755,82.450432 259.199280,82.734993 260.650574,83.550247 
	C261.000824,100.999435 261.000366,117.917923 260.999878,134.836411 
	C259.902496,135.217590 258.805145,135.598755 257.353210,135.907349 
z"/>
<path fill="#62EEE0" opacity="1.000000" stroke="none" 
	d="
M126.881470,241.565338 
	C126.996513,251.684189 126.948151,261.480438 126.971008,271.696838 
	C124.940025,273.071198 122.837830,274.025391 120.369354,274.909302 
	C120.003174,263.251923 120.003273,251.664780 120.003220,239.619263 
	C122.241394,239.854828 124.479729,240.548782 126.881470,241.565338 
z"/>
<path fill="#56ECDD" opacity="1.000000" stroke="none" 
	d="
M270.025726,87.896484 
	C273.985565,92.172760 275.389374,97.250069 275.017395,103.000328 
	C274.575104,109.837173 274.441223,116.695572 273.903839,123.523392 
	C273.789337,124.978439 272.513611,126.342087 271.049377,127.776840 
	C269.883514,125.338814 269.029449,122.865044 269.069824,120.405960 
	C269.247681,109.567154 269.683411,98.732590 270.025726,87.896484 
z"/>
<path fill="#96F2EA" opacity="1.000000" stroke="none" 
	d="
M251.072235,430.393799 
	C251.258514,428.156250 251.932846,426.272034 251.943909,424.383942 
	C252.030457,409.619080 251.989685,394.853455 251.985352,379.630371 
	C252.710144,379.114563 253.437759,379.056458 254.815948,379.285980 
	C255.643112,381.032532 255.970627,382.491241 255.973053,383.950439 
	C255.999283,399.671814 255.974304,415.393311 255.963318,431.114746 
	C254.393234,430.991577 252.823135,430.868439 251.072235,430.393799 
z"/>
<path fill="#80F0E6" opacity="1.000000" stroke="none" 
	d="
M263.037842,430.111694 
	C261.934174,430.401428 260.830444,430.691162 259.360413,430.446960 
	C259.008759,412.903778 259.023468,395.894531 259.038177,378.885284 
	C260.259491,379.001251 261.480835,379.117218 262.858765,380.036407 
	C263.022858,397.263641 263.030334,413.687683 263.037842,430.111694 
z"/>
<path fill="#8BF1E8" opacity="1.000000" stroke="none" 
	d="
M401.409363,274.911316 
	C400.995605,263.223419 400.993774,251.611465 400.994690,239.582062 
	C402.389038,239.116180 403.780640,239.067749 405.584625,239.093079 
	C405.997559,250.750259 405.998108,262.333710 405.997803,274.375183 
	C404.605042,274.884552 403.213165,274.935913 401.409363,274.911316 
z"/>
<path fill="#6CEEE2" opacity="1.000000" stroke="none" 
	d="
M261.362885,134.912323 
	C261.000366,117.917923 261.000824,100.999435 261.000061,83.622803 
	C262.608154,83.533867 264.217499,83.903076 265.691864,84.914223 
	C265.381866,86.188782 265.055725,86.821014 265.054077,87.454102 
	C265.017181,101.594780 264.992218,115.735664 265.056244,129.876099 
	C265.061005,130.934296 265.750549,131.989410 266.121765,133.045959 
	C264.656464,133.693390 263.191193,134.340820 261.362885,134.912323 
z"/>
<path fill="#6CEEE2" opacity="1.000000" stroke="none" 
	d="
M263.386108,430.062897 
	C263.030334,413.687683 263.022858,397.263641 263.027527,380.363770 
	C264.962830,380.693939 266.885986,381.499908 268.964233,382.630066 
	C268.413879,384.580841 267.116516,386.200195 267.096558,387.835114 
	C266.936737,400.942352 267.018219,414.052490 267.038208,427.637085 
	C265.945160,428.746338 264.839752,429.380219 263.386108,430.062897 
z"/>
<path fill="#C0F6F3" opacity="1.000000" stroke="none" 
	d="
M136.611084,131.051651 
	C136.948578,140.992706 136.962723,151.072906 136.967056,161.627899 
	C127.682175,155.704926 125.149826,143.952911 132.028625,134.883362 
	C133.139709,133.418427 134.852890,132.410156 136.611084,131.051651 
z"/>
<path fill="#62EEE0" opacity="1.000000" stroke="none" 
	d="
M266.436005,132.914001 
	C265.750549,131.989410 265.061005,130.934296 265.056244,129.876099 
	C264.992218,115.735664 265.017181,101.594780 265.054077,87.454102 
	C265.055725,86.821014 265.381866,86.188782 265.848572,85.250198 
	C267.360931,85.728806 268.581512,86.513367 269.913940,87.597214 
	C269.683411,98.732590 269.247681,109.567154 269.069824,120.405960 
	C269.029449,122.865044 269.883514,125.338814 270.715179,127.924515 
	C269.653076,129.622818 268.201660,131.202438 266.436005,132.914001 
z"/>
<path fill="#56ECDD" opacity="1.000000" stroke="none" 
	d="
M378.468506,382.021973 
	C377.741425,380.000092 377.037750,377.950745 377.061066,375.909668 
	C377.145782,368.495697 377.473938,361.084503 377.881104,353.282898 
	C388.762177,360.265472 387.693726,375.590546 378.468506,382.021973 
z"/>
<path fill="#C0F6F3" opacity="1.000000" stroke="none" 
	d="
M385.600891,242.942139 
	C386.007233,252.014130 386.054596,261.145233 386.030975,270.696411 
	C379.649231,268.651917 378.448883,262.699341 378.269348,257.360260 
	C378.086365,251.918198 379.631409,246.179413 385.600891,242.942139 
z"/>
<path fill="#62EEE0" opacity="1.000000" stroke="none" 
	d="
M165.352051,373.985962 
	C165.028275,362.770447 165.012848,351.426941 164.996445,339.625488 
	C166.937805,340.216125 168.880173,341.264740 170.674988,342.942688 
	C170.350204,348.020233 169.974030,352.472107 170.057159,356.915405 
	C170.126678,360.630615 170.733490,364.335785 171.102386,368.045380 
	C169.288391,369.982941 167.474411,371.920471 165.352051,373.985962 
z"/>
<path fill="#8BF1E8" opacity="1.000000" stroke="none" 
	d="
M258.880127,378.562195 
	C259.023468,395.894531 259.008759,412.903778 258.992554,430.370758 
	C258.063049,431.122894 257.135040,431.417328 256.085144,431.413269 
	C255.974304,415.393311 255.999283,399.671814 255.973053,383.950439 
	C255.970627,382.491241 255.643112,381.032532 255.181763,379.263428 
	C256.172028,378.715179 257.447083,378.477142 258.880127,378.562195 
z"/>
<path fill="#C0F6F3" opacity="1.000000" stroke="none" 
	d="
M89.600128,242.941467 
	C89.967575,251.976624 89.975014,261.071228 89.971313,270.641907 
	C83.521133,268.723358 82.589981,262.476562 82.340584,257.344238 
	C82.084503,252.074249 83.706078,246.213974 89.600128,242.941467 
z"/>
<path fill="#C0F6F3" opacity="1.000000" stroke="none" 
	d="
M241.549805,91.117340 
	C242.263565,92.644005 242.945129,94.345123 242.960464,96.052231 
	C243.053635,106.425003 242.995026,116.799133 242.974350,127.649567 
	C241.705963,125.994255 239.399521,123.873657 239.376053,121.728104 
	C239.272949,112.301430 239.807831,102.866676 240.189758,93.438019 
	C240.219208,92.710960 240.855469,92.008484 241.549805,91.117340 
z"/>
<path fill="#C0F6F3" opacity="1.000000" stroke="none" 
	d="
M241.549088,387.119019 
	C242.219788,387.501495 242.842896,388.063507 242.838913,388.621063 
	C242.758606,399.895081 242.606339,411.168579 242.181274,422.752258 
	C240.983109,421.246094 239.260666,419.414032 239.295715,417.616241 
	C239.492981,407.491119 237.069275,397.168610 241.549088,387.119019 
z"/>
<path fill="#56ECDD" opacity="1.000000" stroke="none" 
	d="
M171.427979,367.906464 
	C170.733490,364.335785 170.126678,360.630615 170.057159,356.915405 
	C169.974030,352.472107 170.350204,348.020233 170.812714,343.261963 
	C177.636536,348.710236 177.955750,360.792755 171.427979,367.906464 
z"/>
</svg>